<svg xmlns="http://www.w3.org/2000/svg" viewBox="0 0 148.02 338.48"><defs><style>.a{fill:#231f20;}</style></defs><title>NRWE_LOGO</title><path d="M312.76,423.08c-.45-1.33-.84-2.49-1.39-4.1l8.4,4.68c1.21-1.91,1.88-.79,2.49.51.35.73.59,1.52,1,2.21a5.59,5.59,0,0,0,1.24,1.11c-.51,2.38.11,3.95,2.62,5.24a2.35,2.35,0,0,1,1.35,2.71c-.31,3.91.86,5.85,4.27,7.61,5.84,3,11.62,6.14,17.5,9.05,2.9,1.44,3.59,3.61,3.34,6.61-.44,5.41-1.37,10.93-.78,16.26a75.47,75.47,0,0,1-.65,21.3c-1.35,7.85-3.6,15.55-5.61,23.28a15.3,15.3,0,0,1-2.26,4.3c-1.77,2.67-4.29,4.38-7.54,4.18-4.48-.28-8.95-.82-13.39-1.49-.81-.12-1.6-1.26-2.14-2.09a5.37,5.37,0,0,0-7.3-1.48,9,9,0,0,1-2.48.79,6.19,6.19,0,0,0-3.3,1.57c-1.12,1.15-3.31,1.27-5.27,1.92l.23-2.29c-1,0-2,0-2.92,0-4.72.22-8.25-1.89-10.09-6.09a87,87,0,0,1-4.38-12.7,111.26,111.26,0,0,1-4-31.91c.09-3.36.7-6.71.68-10.07s-.53-7-.82-10.46c-.08-.93-.18-1.86-.24-2.8A4.66,4.66,0,0,1,284,446c6.5-3.35,12.85-7,19.48-10.08,3.38-1.56,5.34-3.21,4.21-7.15-.55-1.95.21-3.32,2.18-4.07A21.62,21.62,0,0,0,312.76,423.08Zm6.78,62.9-.6,0c-3.62,5.63-.54,11.59-.46,17.4Q319,494.67,319.54,486Z" transform="translate(-242.53 -361.08)"/><path d="M315.58,526.59l2.69,14.2h.42c.72-3.82,1.44-7.64,2.19-11.65,4.76,2.09,9.61,2.7,14.55,3,5.87.38,9.46-2.5,11.68-7.57,1.64-3.72,3.21-7.46,4.82-11.2.27-.62.56-1.24,1-2.18.39.67.68,1.09.9,1.55,1.65,3.44,3.18,6.94,4.95,10.32,2,3.86,4.89,6.92,9.39,7.66,2.1.35,4.31.06,6.88.06-.18,7-.34,14.44-.58,21.84a15.39,15.39,0,0,1-.72,3.29,4.8,4.8,0,0,1-3,3.4c-1.49.63-2.87,1.52-4.33,2.24s-3.09,2-4.53,1.92c-4.15-.37-8.37-1-11.74-3.86-.57-.48-.52-1.7-.82-2.55s-.58-1.43-.9-2.2c-1.27,2.67-2.3,5-3.52,7.31a2.89,2.89,0,0,1-1.82,1.33c-3.89.62-7.79,1.32-11.71,1.55a30.22,30.22,0,0,1-14.05-2.71,2.42,2.42,0,0,0-1.55-.21c-7,2.23-14,1.45-21,.27-1.34-.22-3.19-.17-3.86-1a29.88,29.88,0,0,1-3.22-6.08,10.22,10.22,0,0,1-.48-2.17l-.58-.18a7.32,7.32,0,0,0-.92,2.21,4.49,4.49,0,0,1-2.44,3.79c-3.36,2.22-7.21,2.31-10.9,3.1a3,3,0,0,1-1.72-.55c-2.71-1.42-5.5-2.73-8.06-4.4a6.39,6.39,0,0,1-2.4-3.33c-1.69-5.78-1.71-11.73-1.38-17.68.16-2.86.42-5.7.61-8.31a40.38,40.38,0,0,0,6.49-.06c4.86-.79,7.9-4.07,10-8.25,1.72-3.33,3.25-6.76,4.87-10.14.29-.62.61-1.22,1.06-2.12.36.77.62,1.3.86,1.85,1.53,3.56,3.08,7.11,4.58,10.68,4.23,10.12,8.79,9.91,16.53,9.11C307.78,528.49,311.57,527.41,315.58,526.59Z" transform="translate(-242.53 -361.08)"/><path d="M265.92,427c-.37,1-.6,1.66-.84,2.29-1.27,3.33-.41,5.43,2.87,6.95l12,5.57c-.52,4.3-1.08,8.56-1.54,12.83a141.29,141.29,0,0,0-.25,32c.66,5.51,1.91,10.94,2.85,16.41a2.76,2.76,0,0,1-.29,1.72c-2.58,4.43-5.12,8.89-7.87,13.21s-6.6,6.57-11.92,5.42c-1.47-.31-3-.41-4.42-.83A4.41,4.41,0,0,1,254,521.2c-1.21-2-3.06-2.11-5-2.27a43,43,0,0,1-4.81-.6,1.9,1.9,0,0,1-1.58-2.52c.65-3.31,1.19-6.64,2-9.92s2-3.79,5.05-2.69c1.74.63,3.41,1.49,5.12,2.24.11-3.72-1.57-5.38-5.7-5.63-3.33-.2-3.84-.59-3.53-4,.6-6.28,1.47-12.53,2.11-18.8.32-3.17.15-6.39.62-9.53a228.3,228.3,0,0,1,7.24-32.7c1.09-3.58,2.64-7,7-7.75A21.91,21.91,0,0,1,265.92,427Z" transform="translate(-242.53 -361.08)"/><path d="M378.58,509.55c2.35-1,4.09-1.84,5.91-2.45,2.23-.75,3.35-.29,3.9,1.87.91,3.56,1.6,7.19,2.16,10.82a2.52,2.52,0,0,1-1.48,1.93,22.65,22.65,0,0,1-4.61.61c-1.82.17-3.65.18-4.66,2.15a2.84,2.84,0,0,1-1.15.94c-6.49,3.59-13.7,1.67-17.45-4.63-2.31-3.87-4.65-7.72-6.88-11.64a3.56,3.56,0,0,1-.35-2.41c3.29-12.43,3.82-25.09,3-37.82-.44-6.74-1.29-13.44-2-20.37,3.71-1.72,7.63-3.36,11.36-5.35,1.38-.74,2.38-2.25,3.44-3.5.22-.25,0-.94-.1-1.38-.38-1.17-.84-2.32-1.27-3.47,2.75-1,5.54-.4,7.17,1.88a19.72,19.72,0,0,1,2.79,5.46,227.07,227.07,0,0,1,7.07,32.19c.45,2.89.21,5.88.51,8.79.57,5.6,1.4,11.17,1.92,16.78.33,3.5-.14,3.73-3.57,4.19a9.94,9.94,0,0,0-4.51,1.64C379,506.35,379.05,508,378.58,509.55Z" transform="translate(-242.53 -361.08)"/><path d="M328.32,429.64c-.08-3.17.58-5.16,3.32-10.18a24.55,24.55,0,0,1,25.19-40.88c2.67.91,4.73-.45,4.89-3.3.2-3.68,1.54-4.7,5.06-3.69,2.44.71,4.87,1.49,7.26,2.37s3.06,2.51,2.45,4.93c-.3,1.2-.58,2.42-.78,3.64a5,5,0,0,0,1.49,4.85c3.56,3.47,6.41,7.45,7.54,12.47a12.24,12.24,0,0,1-.6,7c-1.55,4.39-3.09,8.78-4.57,13.19a3.93,3.93,0,0,0,1.23,4.39,39.78,39.78,0,0,1,5.36,6.26l-4.08-.64c3.3,6.19,5.75,12.53,3.63,19.77-.34-1.2-.67-2.4-1-3.6-.52-1.72-1-3.46-1.6-5.15a14.06,14.06,0,0,0-6.48-8.17c-1.14-.63-2.17-1.47-3.25-2.21-2.79-1.92-4.55-4.25-4.19-8,.19-2-.43-4.07-.69-6.19l-7,6.39c.87,1.55,1.83,3.22,2.74,4.92.25.47.61,1.21.43,1.53-1.39,2.36-.2,4.47.46,6.64.25.84.5,1.67.79,2.66l-14.19,8-.43-.23c3.95-7,6.38-14.6,8.4-22.76a26.32,26.32,0,0,1-21.73.24l11.67,22c-6.87-1.12-12-5.09-17.93-7.5l1.76-8.29Zm41-32.33a6.87,6.87,0,1,0-6.86,6.95A6.87,6.87,0,0,0,369.3,397.31Zm-34.51,6.95a6.9,6.9,0,1,0-6.87-7A6.95,6.95,0,0,0,334.79,404.26Zm20.6-16.86a6.84,6.84,0,1,0-6.79,7A6.78,6.78,0,0,0,355.39,387.4Zm1.21,32.36c4.06-.32,6.8-2.63,7-6.78a6.88,6.88,0,0,0-13.76-.23A6.87,6.87,0,0,0,356.6,419.76Zm-23.21-6.95a6.86,6.86,0,1,0,6.84-6.76A6.78,6.78,0,0,0,333.39,412.81Zm15.34-8.21a3.58,3.58,0,0,0,3.65-3.5,3.58,3.58,0,0,0-7.15-.16A3.62,3.62,0,0,0,348.73,404.6Z" transform="translate(-242.53 -361.08)"/><path d="M316.67,578.71c.27,2,.81,3.68.68,5.36-.45,6.06-1.06,12.11-1.75,18.15-.5,4.41-1.51,8.79-1.71,13.21-.17,3.63.54,7.3.85,11,.1,1.24.16,2.48.23,3.77a32.24,32.24,0,0,0-5.07-2.51c-2.29-.69-4,.07-4.89,1.77,3.07.66,6.1,1.26,9.09,2a4.32,4.32,0,0,1,1.73,1.32,25.76,25.76,0,0,1,1.66,2.22,26.14,26.14,0,0,0,2.25-2.71,4.85,4.85,0,0,1,4-2.52c2.38-.23,4.69-1.23,7-1.91-1.18-2.57-3.86-2.33-9.36,1,.17-2.7-.07-5.32.58-7.71,1.11-4.12.38-8.08-.18-12.09-.58-4.28-1.35-8.54-1.84-12.83-.45-3.92-.74-7.88-.88-11.83a25.9,25.9,0,0,1,.76-4.81c2,.58,3.61,1,5.2,1.54a16.55,16.55,0,0,0,10.16,0c2-.59,2.9-.13,3,1.88.28,4.81.88,9.76-.82,14.34-1.87,5-2,10.3-3.17,15.39-1.1,4.81.13,9.3,1.2,13.85,1,4.09.11,7.94-1.46,11.72-.42,1-.69,2.11-1.09,3.15a1.55,1.55,0,0,1-.66.82,27.62,27.62,0,0,1-5.13,2.24,91.85,91.85,0,0,0-9.16,2.76c-3.53,1.24-7.3.17-10.79-1.16a29.19,29.19,0,0,1-3.35-1.69,1.7,1.7,0,0,1-.76-.74c-.64-1.68-1.16-3.41-1.83-5.08-2.07-5.19-1.06-10.3.11-15.49a24.57,24.57,0,0,0,.48-7.36c-.4-4.42-1.07-8.82-1.89-13.19-.48-2.56-1.87-5-2.12-7.53a103.92,103.92,0,0,1-.3-12.73c.05-2.1,1-2.58,3-1.91,4.38,1.48,8.64.95,12.88-.51C314.23,579.51,315.17,579.21,316.67,578.71Z" transform="translate(-242.53 -361.08)"/><path d="M302.11,408.32c2.83,4.14,6,8.07,5.62,13.61l-5.33.52c.53,2.47,1.09,4.88,1.52,7.32a1.89,1.89,0,0,1-.57,1.6c-5.07,2.42-10.17,4.75-15.29,7.06a14.88,14.88,0,0,1-2.55.55l16.13-30.42c-8.14,4.29-16,4.83-23.89,1.24a24.75,24.75,0,0,1-12.81-13.14,25.52,25.52,0,0,1,44.56-24.41C316.85,383,315.43,399.09,302.11,408.32Zm.63-19A7.17,7.17,0,1,0,302.9,375a7.17,7.17,0,0,0-.16,14.34Zm-28.69,0a7.17,7.17,0,1,0-7.12-7.16A7.14,7.14,0,0,0,274.05,389.31Zm14.31-24.58a7.06,7.06,0,0,0-7.12,7.13,7.17,7.17,0,1,0,14.34-.09A7.08,7.08,0,0,0,288.36,364.73Zm8.54,40.74a7.16,7.16,0,0,0,7.19-7.11,7.25,7.25,0,0,0-7.12-7.22,7.14,7.14,0,0,0-7.23,7.24A7.06,7.06,0,0,0,296.9,405.47Zm-17.23,0a7.13,7.13,0,0,0,7.24-7,7.17,7.17,0,1,0-14.34-.12A7.08,7.08,0,0,0,279.67,405.47Zm9.1-23.27a3.73,3.73,0,0,0-3.81,3.57,3.66,3.66,0,0,0,3.63,3.9,3.77,3.77,0,0,0,3.86-3.72A3.83,3.83,0,0,0,288.77,382.2Z" transform="translate(-242.53 -361.08)"/><path d="M285.54,572.82c.2,2.55.29,4.85.61,7.13.16,1.14,1.05,2.22,1.07,3.34.15,9,.16,18,.26,27a2.52,2.52,0,0,0,.73,1.47,9.25,9.25,0,0,0,1.66,1.15c-.28.85-.49,1.56-.76,2.26-.59,1.58-.12,2.77.95,4.08a12.89,12.89,0,0,1,2.05,4.29c.39,1.29-.35,2-1.78,1.8-1.79-.24-3.59-.44-5.59-.68l-1.11,2.14,9.35.84c-.28,4,0,8-1,11.66-.68,2.41-2.5,5.17-5.69,5.59a70.4,70.4,0,0,1-10,.81c-2.51,0-3.29-1.44-2.89-4a10.36,10.36,0,0,1,.7-2.32c1.61-3.93,3.32-7.81,4.82-11.78a3.19,3.19,0,0,0-.73-2.41c-1-1.34-1.68-2.54-.36-4.08a1.86,1.86,0,0,0,.09-1.53,22.25,22.25,0,0,0-1.26-3.13A134,134,0,0,1,266.5,586.6a49.77,49.77,0,0,1-1-8c-.15-2.42.54-3,2.85-2.5a19.51,19.51,0,0,0,14-1.88C283.32,573.68,284.44,573.29,285.54,572.82Z" transform="translate(-242.53 -361.08)"/><path d="M342.47,626.21l8.66-.78c-.19-1.78-1-2.19-2.55-1.82a35.36,35.36,0,0,1-3.72.49c-1.13.16-1.87-.39-1.6-1.44a10.39,10.39,0,0,1,1.75-4.2c1.3-1.5,1.7-2.91.92-4.6a1.78,1.78,0,0,1,.87-2.72,2.09,2.09,0,0,0,.87-1.56c0-5.37-.06-10.74-.08-16.11,0-1.94.11-3.88.14-5.81a19.3,19.3,0,0,1,1.07-6.77c.78-2.08.54-4.54.77-7,1.85.77,3.85,1.47,5.72,2.42,3.49,1.76,7,1.26,10.65.63,2.31-.41,3,0,2.84,2.44a35.51,35.51,0,0,1-1,7.42c-1.95,7-4,14-6.3,21-1.15,3.48-3,6.72-4.34,10.13a3.8,3.8,0,0,0,.16,2.73c.47,1,.63,1.72-.17,2.47-1.63,1.53-1.44,3-.5,5,1.55,3.19,2.78,6.55,4.08,9.86a9.19,9.19,0,0,1,.58,2.54,2.53,2.53,0,0,1-2.22,3,20.33,20.33,0,0,1-11.61-1.18,7.4,7.4,0,0,1-4.42-6.1C342.82,632.94,342.67,629.69,342.47,626.21Z" transform="translate(-242.53 -361.08)"/><path d="M283.76,440l-15.28-8.58c.42-1.41.75-2.74,1.23-4,.68-1.84,1.26-3.64.14-5.53a1.22,1.22,0,0,1,0-1c1.94-3.49,3.91-6.95,5.88-10.42l.66.17c-.21,1.27-.45,2.54-.6,3.81a10.65,10.65,0,0,0-.2,3.79c1.93,6.85,3.88,13.71,7.44,19.95A15.8,15.8,0,0,1,283.76,440Z" transform="translate(-242.53 -361.08)"/><path class="a" d="M273.67,655.57h3.18l6.28,10.5h0v-10.5h2.4v14h-3.05l-6.41-10.83h0v10.83h-2.4Z" transform="translate(-242.53 -361.08)"/><path class="a" d="M287.9,662.54a8,8,0,0,1,.55-3,6.6,6.6,0,0,1,1.5-2.31,6.93,6.93,0,0,1,2.29-1.47,8.53,8.53,0,0,1,5.81,0,6.81,6.81,0,0,1,2.31,1.47,6.51,6.51,0,0,1,1.52,2.31,8.15,8.15,0,0,1,.55,3,8,8,0,0,1-.55,3,6.81,6.81,0,0,1-1.52,2.34,7,7,0,0,1-2.31,1.53,8.08,8.08,0,0,1-5.81,0,7.08,7.08,0,0,1-2.29-1.53,6.92,6.92,0,0,1-1.5-2.34A7.82,7.82,0,0,1,287.9,662.54Zm2.62,0a6.24,6.24,0,0,0,.33,2.07,4.8,4.8,0,0,0,1,1.64,4.44,4.44,0,0,0,1.46,1.08,4.87,4.87,0,0,0,3.77,0,4.32,4.32,0,0,0,1.48-1.08,5,5,0,0,0,1-1.64,6.24,6.24,0,0,0,.33-2.07,6,6,0,0,0-.33-2,5.18,5.18,0,0,0-1-1.63,4.44,4.44,0,0,0-1.47-1.09,4.56,4.56,0,0,0-1.91-.39,4.32,4.32,0,0,0-3.35,1.48,5,5,0,0,0-.95,1.63A6,6,0,0,0,290.52,662.54Z" transform="translate(-242.53 -361.08)"/><path class="a" d="M306.91,657.75h-4.14v-2.18h10.69v2.18h-4.15v11.84h-2.4Z" transform="translate(-242.53 -361.08)"/><path class="a" d="M315,655.57h2.4v5.66h6.32v-5.66h2.41v14h-2.41v-6.22h-6.32v6.22H315Z" transform="translate(-242.53 -361.08)"/><path class="a" d="M329.12,655.57h2.41v14h-2.41Z" transform="translate(-242.53 -361.08)"/><path class="a" d="M334.5,655.57h3.19l6.28,10.5h0v-10.5h2.4v14h-3.05L337,658.76h0v10.83H334.5Z" transform="translate(-242.53 -361.08)"/><path class="a" d="M361.22,668.86a9.9,9.9,0,0,1-2.26.8,12.11,12.11,0,0,1-2.84.29,8,8,0,0,1-3-.54,7,7,0,0,1-2.33-1.53,7,7,0,0,1-1.52-2.34,8.57,8.57,0,0,1,0-6,6.71,6.71,0,0,1,1.55-2.31,7,7,0,0,1,2.32-1.47,8,8,0,0,1,2.9-.51,8.81,8.81,0,0,1,3,.48A6.13,6.13,0,0,1,361.2,657l-1.66,1.86a4.14,4.14,0,0,0-1.44-1,5,5,0,0,0-2-.41,4.67,4.67,0,0,0-1.94.39,4.48,4.48,0,0,0-1.48,1.09,5,5,0,0,0-.94,1.63,5.75,5.75,0,0,0-.34,2,6,6,0,0,0,.34,2.07,4.94,4.94,0,0,0,.95,1.64,4.35,4.35,0,0,0,1.51,1.08,5.11,5.11,0,0,0,2,.38,6.73,6.73,0,0,0,2.69-.49v-3.57h-2.84v-2.06h5.17Z" transform="translate(-242.53 -361.08)"/><path class="a" d="M273.9,673.49h5.44a10.79,10.79,0,0,1,2.14.21,5.91,5.91,0,0,1,1.85.69,3.76,3.76,0,0,1,1.29,1.25,3.48,3.48,0,0,1,.48,1.88,3.37,3.37,0,0,1-1,2.49,4.9,4.9,0,0,1-2.62,1.3l4.18,6.23h-3.36l-3.62-5.95h-2v5.95H273.9Zm5.06,6.06a9.39,9.39,0,0,0,1.19-.08,3.57,3.57,0,0,0,1.08-.3,2.07,2.07,0,0,0,.78-.63,1.63,1.63,0,0,0,.31-1,1.48,1.48,0,0,0-.29-.94,2.14,2.14,0,0,0-.73-.59,3.34,3.34,0,0,0-1-.29,7,7,0,0,0-1.1-.08h-2.51v3.95Z" transform="translate(-242.53 -361.08)"/><path class="a" d="M287.8,673.49h2.79v5.68h7.31v-5.68h2.79v14H297.9v-6.23h-7.31v6.23H287.8Z" transform="translate(-242.53 -361.08)"/><path class="a" d="M307.91,681.45l-5.88-8h3.41l3.93,5.92,4-5.92h3.22l-5.87,8v6.09h-2.79Z" transform="translate(-242.53 -361.08)"/><path class="a" d="M317.88,673.49h4.35l4.07,10h.06l4-10h4.37v14H332V676.25h0l-4.76,11.29h-1.94l-4.69-11.29h0v11.29h-2.65Z" transform="translate(-242.53 -361.08)"/><path class="a" d="M338.21,673.49h10.36v2.19H341v3.57h7.18v2.1H341v4h8v2.22H338.21Z" transform="translate(-242.53 -361.08)"/><path class="a" d="M359.67,676.43a3.41,3.41,0,0,0-1.25-.86,4.12,4.12,0,0,0-1.63-.35,4.58,4.58,0,0,0-1,.11,2.83,2.83,0,0,0-.88.34,1.85,1.85,0,0,0-.65.59,1.53,1.53,0,0,0-.26.89,1.45,1.45,0,0,0,.22.81,1.86,1.86,0,0,0,.61.57,4.34,4.34,0,0,0,.94.42c.37.12.77.24,1.21.36s1,.31,1.56.49a6.61,6.61,0,0,1,1.48.74,3.81,3.81,0,0,1,1.11,1.15,3.19,3.19,0,0,1,.43,1.73,4,4,0,0,1-.47,2,4.14,4.14,0,0,1-1.23,1.4,5.47,5.47,0,0,1-1.81.83,8.32,8.32,0,0,1-2.19.28,9.29,9.29,0,0,1-3-.5,5.85,5.85,0,0,1-2.38-1.5l2-1.67a3.88,3.88,0,0,0,1.53,1.13,4.69,4.69,0,0,0,1.89.42,4.94,4.94,0,0,0,1-.11,2.81,2.81,0,0,0,.91-.37,2.05,2.05,0,0,0,.67-.64,1.81,1.81,0,0,0,.25-1,1.47,1.47,0,0,0-.29-.92,2.58,2.58,0,0,0-.77-.63,5.61,5.61,0,0,0-1.15-.47l-1.39-.42c-.47-.13-1-.29-1.42-.47a4.86,4.86,0,0,1-1.27-.74,3.38,3.38,0,0,1-1.27-2.78,3.33,3.33,0,0,1,.5-1.84,4.18,4.18,0,0,1,1.3-1.28,6.2,6.2,0,0,1,1.84-.76,9.12,9.12,0,0,1,2.09-.24,8.28,8.28,0,0,1,2.42.37,6.22,6.22,0,0,1,2.13,1.13Z" transform="translate(-242.53 -361.08)"/><path class="a" d="M273.68,691.53h1.08l1.08,5.9h0l1.22-5.9h1l1.21,5.9h0l1.1-5.9h1.06l-1.63,8h-1l-1.3-6h0l-1.31,6h-.95Z" transform="translate(-242.53 -361.08)"/><path class="a" d="M282.14,691.53h1v8h-1Z" transform="translate(-242.53 -361.08)"/><path class="a" d="M285.48,692.78h-1.71v-1.25h4.41v1.25h-1.71v6.78h-1Z" transform="translate(-242.53 -361.08)"/><path class="a" d="M288.82,691.53h1v3.24h2.6v-3.24h1v8h-1V696h-2.6v3.56h-1Z" transform="translate(-242.53 -361.08)"/><path class="a" d="M296.6,691.53h3.68v1.25h-2.69v2h2.55V696h-2.55v2.27h2.83v1.27H296.6Z" transform="translate(-242.53 -361.08)"/><path class="a" d="M301.39,691.53h1.31l2.59,6h0v-6h1v8H305l-2.64-6.2h0v6.2h-1Z" transform="translate(-242.53 -361.08)"/><path class="a" d="M308.65,692.78h-1.71v-1.25h4.4v1.25h-1.7v6.78h-1Z" transform="translate(-242.53 -361.08)"/><path class="a" d="M312,691.53h3.69v1.25H313v2h2.55V696H313v2.27h2.84v1.27H312Z" transform="translate(-242.53 -361.08)"/><path class="a" d="M316.78,691.53h1.94a2.46,2.46,0,0,1,.76.12,1.7,1.7,0,0,1,.66.39,2,2,0,0,1,.46.71,3.14,3.14,0,0,1,.17,1.08,2.68,2.68,0,0,1-.34,1.43,1.74,1.74,0,0,1-.93.74l1.48,3.56h-1.19l-1.29-3.4h-.73v3.4h-1Zm1.8,3.46a2,2,0,0,0,.43,0,.87.87,0,0,0,.38-.17.91.91,0,0,0,.28-.35,1.5,1.5,0,0,0,.11-.6,1.21,1.21,0,0,0-.1-.54,1,1,0,0,0-.26-.33.85.85,0,0,0-.36-.17,1.74,1.74,0,0,0-.39,0h-.9V695Z" transform="translate(-242.53 -361.08)"/><path class="a" d="M322.76,692.78h-1.71v-1.25h4.41v1.25h-1.71v6.78h-1Z" transform="translate(-242.53 -361.08)"/><path class="a" d="M327.37,691.53h.86l2.4,8H329.5l-.52-1.84h-2.42l-.5,1.84H325Zm1.26,5-.85-3.27-.88,3.27Z" transform="translate(-242.53 -361.08)"/><path class="a" d="M331.18,691.53h1v8h-1Z" transform="translate(-242.53 -361.08)"/><path class="a" d="M333.4,691.53h1.31l2.58,6h0v-6h1v8H337l-2.64-6.2h0v6.2h-1Z" transform="translate(-242.53 -361.08)"/><path class="a" d="M339.53,691.53h1.55l1.44,5.71h0l1.43-5.71h1.56v8h-1v-6.45h0l-1.69,6.45h-.7l-1.66-6.45h0v6.45h-.94Z" transform="translate(-242.53 -361.08)"/><path class="a" d="M346.76,691.53h3.69v1.25h-2.7v2h2.56V696h-2.56v2.27h2.84v1.27h-3.83Z" transform="translate(-242.53 -361.08)"/><path class="a" d="M351.56,691.53h1.31l2.59,6h0v-6h1v8H355.2l-2.64-6.2h0v6.2h-1Z" transform="translate(-242.53 -361.08)"/><path class="a" d="M358.81,692.78h-1.7v-1.25h4.4v1.25H359.8v6.78h-1Z" transform="translate(-242.53 -361.08)"/></svg>